<svg width="220" height="48" viewBox="0 0 220 48" fill="none" xmlns="http://www.w3.org/2000/svg">
<path d="M71.368 15.32V32H68.632V20.576L63.544 32H61.648L56.536 20.576V32H53.8V15.32H56.752L62.608 28.4L68.44 15.32H71.368ZM79.2001 32.216C77.9521 32.216 76.8241 31.936 75.8161 31.376C74.8081 30.8 74.0161 30 73.4401 28.976C72.8641 27.936 72.5761 26.736 72.5761 25.376C72.5761 24.032 72.8721 22.84 73.4641 21.8C74.0561 20.76 74.8641 19.96 75.8881 19.4C76.9121 18.84 78.0561 18.56 79.3201 18.56C80.5841 18.56 81.7281 18.84 82.7521 19.4C83.7761 19.96 84.5841 20.76 85.1761 21.8C85.7681 22.84 86.0641 24.032 86.0641 25.376C86.0641 26.72 85.7601 27.912 85.1521 28.952C84.5441 29.992 83.7121 30.8 82.6561 31.376C81.6161 31.936 80.4641 32.216 79.2001 32.216ZM79.2001 29.84C79.9041 29.84 80.5601 29.672 81.1681 29.336C81.7921 29 82.2961 28.496 82.6801 27.824C83.0641 27.152 83.2561 26.336 83.2561 25.376C83.2561 24.416 83.0721 23.608 82.7041 22.952C82.3361 22.28 81.8481 21.776 81.2401 21.44C80.6321 21.104 79.9761 20.936 79.2721 20.936C78.5681 20.936 77.9121 21.104 77.3041 21.44C76.7121 21.776 76.2401 22.28 75.8881 22.952C75.5361 23.608 75.3601 24.416 75.3601 25.376C75.3601 26.8 75.7201 27.904 76.4401 28.688C77.1761 29.456 78.0961 29.84 79.2001 29.84ZM92.3808 29.552L96.1248 18.776H99.0287L93.9888 32H90.7248L85.7088 18.776H88.6367L92.3808 29.552ZM100.989 17.024C100.493 17.024 100.077 16.856 99.7409 16.52C99.4049 16.184 99.2369 15.768 99.2369 15.272C99.2369 14.776 99.4049 14.36 99.7409 14.024C100.077 13.688 100.493 13.52 100.989 13.52C101.469 13.52 101.877 13.688 102.213 14.024C102.549 14.36 102.717 14.776 102.717 15.272C102.717 15.768 102.549 16.184 102.213 16.52C101.877 16.856 101.469 17.024 100.989 17.024ZM102.333 18.776V32H99.5969V18.776H102.333ZM116.545 25.064C116.545 25.56 116.513 26.008 116.449 26.408H106.345C106.425 27.464 106.817 28.312 107.521 28.952C108.225 29.592 109.089 29.912 110.113 29.912C111.585 29.912 112.625 29.296 113.233 28.064H116.185C115.785 29.28 115.057 30.28 114.001 31.064C112.961 31.832 111.665 32.216 110.113 32.216C108.849 32.216 107.713 31.936 106.705 31.376C105.713 30.8 104.929 30 104.353 28.976C103.793 27.936 103.513 26.736 103.513 25.376C103.513 24.016 103.785 22.824 104.329 21.8C104.889 20.76 105.665 19.96 106.657 19.4C107.665 18.84 108.817 18.56 110.113 18.56C111.361 18.56 112.473 18.832 113.449 19.376C114.425 19.92 115.185 20.688 115.729 21.68C116.273 22.656 116.545 23.784 116.545 25.064ZM113.689 24.2C113.673 23.192 113.313 22.384 112.609 21.776C111.905 21.168 111.033 20.864 109.993 20.864C109.049 20.864 108.241 21.168 107.569 21.776C106.897 22.368 106.497 23.176 106.369 24.2H113.689ZM122.538 32.216C121.498 32.216 120.562 32.032 119.73 31.664C118.914 31.28 118.266 30.768 117.786 30.128C117.306 29.472 117.05 28.744 117.018 27.944H119.85C119.898 28.504 120.162 28.976 120.642 29.36C121.138 29.728 121.754 29.912 122.49 29.912C123.258 29.912 123.85 29.768 124.266 29.48C124.698 29.176 124.914 28.792 124.914 28.328C124.914 27.832 124.674 27.464 124.194 27.224C123.73 26.984 122.986 26.72 121.962 26.432C120.97 26.16 120.162 25.896 119.538 25.64C118.914 25.384 118.37 24.992 117.906 24.464C117.458 23.936 117.234 23.24 117.234 22.376C117.234 21.672 117.442 21.032 117.858 20.456C118.274 19.864 118.866 19.4 119.634 19.064C120.418 18.728 121.314 18.56 122.322 18.56C123.826 18.56 125.034 18.944 125.946 19.712C126.874 20.464 127.37 21.496 127.434 22.808H124.698C124.65 22.216 124.41 21.744 123.978 21.392C123.546 21.04 122.962 20.864 122.226 20.864C121.506 20.864 120.954 21 120.57 21.272C120.186 21.544 119.994 21.904 119.994 22.352C119.994 22.704 120.122 23 120.378 23.24C120.634 23.48 120.946 23.672 121.314 23.816C121.682 23.944 122.226 24.112 122.946 24.32C123.906 24.576 124.69 24.84 125.298 25.112C125.922 25.368 126.458 25.752 126.906 26.264C127.354 26.776 127.586 27.456 127.602 28.304C127.602 29.056 127.394 29.728 126.978 30.32C126.562 30.912 125.97 31.376 125.202 31.712C124.45 32.048 123.562 32.216 122.538 32.216ZM142.72 23.432C143.616 23.592 144.376 24.064 145 24.848C145.624 25.632 145.936 26.52 145.936 27.512C145.936 28.36 145.712 29.128 145.264 29.816C144.832 30.488 144.2 31.024 143.368 31.424C142.536 31.808 141.568 32 140.464 32H133.792V15.32H140.152C141.288 15.32 142.264 15.512 143.08 15.896C143.896 16.28 144.512 16.8 144.928 17.456C145.344 18.096 145.552 18.816 145.552 19.616C145.552 20.576 145.296 21.376 144.784 22.016C144.272 22.656 143.584 23.128 142.72 23.432ZM136.528 22.328H139.912C140.808 22.328 141.504 22.128 142 21.728C142.512 21.312 142.768 20.72 142.768 19.952C142.768 19.2 142.512 18.616 142 18.2C141.504 17.768 140.808 17.552 139.912 17.552H136.528V22.328ZM140.224 29.768C141.152 29.768 141.88 29.544 142.408 29.096C142.936 28.648 143.2 28.024 143.2 27.224C143.2 26.408 142.92 25.76 142.36 25.28C141.8 24.8 141.056 24.56 140.128 24.56H136.528V29.768H140.224ZM150.145 20.696C150.545 20.024 151.073 19.504 151.729 19.136C152.401 18.752 153.193 18.56 154.105 18.56V21.392H153.409C152.337 21.392 151.521 21.664 150.961 22.208C150.417 22.752 150.145 23.696 150.145 25.04V32H147.409V18.776H150.145V20.696ZM160.856 32.216C159.608 32.216 158.48 31.936 157.472 31.376C156.464 30.8 155.672 30 155.096 28.976C154.52 27.936 154.232 26.736 154.232 25.376C154.232 24.032 154.528 22.84 155.12 21.8C155.712 20.76 156.52 19.96 157.544 19.4C158.568 18.84 159.712 18.56 160.976 18.56C162.24 18.56 163.384 18.84 164.408 19.4C165.432 19.96 166.24 20.76 166.832 21.8C167.424 22.84 167.72 24.032 167.72 25.376C167.72 26.72 167.416 27.912 166.808 28.952C166.2 29.992 165.368 30.8 164.312 31.376C163.272 31.936 162.12 32.216 160.856 32.216ZM160.856 29.84C161.56 29.84 162.216 29.672 162.824 29.336C163.448 29 163.952 28.496 164.336 27.824C164.72 27.152 164.912 26.336 164.912 25.376C164.912 24.416 164.728 23.608 164.36 22.952C163.992 22.28 163.504 21.776 162.896 21.44C162.288 21.104 161.632 20.936 160.928 20.936C160.224 20.936 159.568 21.104 158.96 21.44C158.368 21.776 157.896 22.28 157.544 22.952C157.192 23.608 157.016 24.416 157.016 25.376C157.016 26.8 157.376 27.904 158.096 28.688C158.832 29.456 159.752 29.84 160.856 29.84ZM186.685 18.776L182.581 32H179.701L177.037 22.232L174.373 32H171.493L167.365 18.776H170.149L172.909 29.408L175.717 18.776H178.573L181.261 29.36L183.997 18.776H186.685ZM192.03 32.216C190.99 32.216 190.054 32.032 189.222 31.664C188.406 31.28 187.758 30.768 187.278 30.128C186.798 29.472 186.542 28.744 186.51 27.944H189.342C189.39 28.504 189.654 28.976 190.134 29.36C190.63 29.728 191.246 29.912 191.982 29.912C192.75 29.912 193.342 29.768 193.758 29.48C194.19 29.176 194.406 28.792 194.406 28.328C194.406 27.832 194.166 27.464 193.686 27.224C193.222 26.984 192.478 26.72 191.454 26.432C190.462 26.16 189.654 25.896 189.03 25.64C188.406 25.384 187.862 24.992 187.398 24.464C186.95 23.936 186.726 23.24 186.726 22.376C186.726 21.672 186.934 21.032 187.35 20.456C187.766 19.864 188.358 19.4 189.126 19.064C189.91 18.728 190.806 18.56 191.814 18.56C193.318 18.56 194.526 18.944 195.438 19.712C196.366 20.464 196.862 21.496 196.926 22.808H194.19C194.142 22.216 193.902 21.744 193.47 21.392C193.038 21.04 192.454 20.864 191.718 20.864C190.998 20.864 190.446 21 190.062 21.272C189.678 21.544 189.486 21.904 189.486 22.352C189.486 22.704 189.614 23 189.87 23.24C190.126 23.48 190.438 23.672 190.806 23.816C191.174 23.944 191.718 24.112 192.438 24.32C193.398 24.576 194.182 24.84 194.79 25.112C195.414 25.368 195.95 25.752 196.398 26.264C196.846 26.776 197.078 27.456 197.094 28.304C197.094 29.056 196.886 29.728 196.47 30.32C196.054 30.912 195.462 31.376 194.694 31.712C193.942 32.048 193.054 32.216 192.03 32.216ZM210.67 25.064C210.67 25.56 210.638 26.008 210.574 26.408H200.47C200.55 27.464 200.942 28.312 201.646 28.952C202.35 29.592 203.214 29.912 204.238 29.912C205.71 29.912 206.75 29.296 207.358 28.064H210.31C209.91 29.28 209.182 30.28 208.126 31.064C207.086 31.832 205.79 32.216 204.238 32.216C202.974 32.216 201.838 31.936 200.83 31.376C199.838 30.8 199.054 30 198.478 28.976C197.918 27.936 197.638 26.736 197.638 25.376C197.638 24.016 197.91 22.824 198.454 21.8C199.014 20.76 199.79 19.96 200.782 19.4C201.79 18.84 202.942 18.56 204.238 18.56C205.486 18.56 206.598 18.832 207.574 19.376C208.55 19.92 209.31 20.688 209.854 21.68C210.398 22.656 210.67 23.784 210.67 25.064ZM207.814 24.2C207.798 23.192 207.438 22.384 206.734 21.776C206.03 21.168 205.158 20.864 204.118 20.864C203.174 20.864 202.366 21.168 201.694 21.776C201.022 22.368 200.622 23.176 200.494 24.2H207.814ZM214.599 20.696C214.999 20.024 215.527 19.504 216.183 19.136C216.855 18.752 217.647 18.56 218.559 18.56V21.392H217.863C216.791 21.392 215.975 21.664 215.415 22.208C214.871 22.752 214.599 23.696 214.599 25.04V32H211.863V18.776H214.599V20.696Z" fill="white"/>
<path d="M26.8774 28.9939L32.9858 31.4906C34.1458 31.9639 35.4158 31.1122 35.4158 29.8589V18.7939C35.4158 17.5406 34.1458 16.6872 32.9858 17.1606L26.8774 19.6572" stroke="white" stroke-width="2.5" stroke-linecap="round" stroke-linejoin="round"/>
<path fill-rule="evenodd" clip-rule="evenodd" d="M10.5068 35.9014H20.9552C24.5952 35.9014 26.8785 33.5297 26.8785 30.1714V18.4797C26.8785 15.1214 24.6052 12.7497 20.9552 12.7497H10.5068C6.85516 12.7497 4.5835 15.1214 4.5835 18.4797V30.1714C4.5835 33.5297 6.85516 35.9014 10.5068 35.9014Z" stroke="white" stroke-width="2.5" stroke-linecap="round" stroke-linejoin="round"/>
</svg>
