<svg width="27" height="19" viewBox="0 0 27 19" fill="none" xmlns="http://www.w3.org/2000/svg">
<path d="M6.672 0.927999L2.288 18.72H0.848L5.216 0.927999H6.672ZM12.483 5.76V4.432H15.491V16H14.019V5.76H12.483ZM17.992 10.096C17.992 8.26133 18.2907 6.832 18.888 5.808C19.4853 4.77333 20.5307 4.256 22.024 4.256C23.5067 4.256 24.5467 4.77333 25.144 5.808C25.7413 6.832 26.04 8.26133 26.04 10.096C26.04 11.9627 25.7413 13.4133 25.144 14.448C24.5467 15.4827 23.5067 16 22.024 16C20.5307 16 19.4853 15.4827 18.888 14.448C18.2907 13.4133 17.992 11.9627 17.992 10.096ZM24.6 10.096C24.6 9.168 24.536 8.384 24.408 7.744C24.2907 7.09333 24.04 6.57067 23.656 6.176C23.2827 5.78133 22.7387 5.584 22.024 5.584C21.2987 5.584 20.744 5.78133 20.36 6.176C19.9867 6.57067 19.736 7.09333 19.608 7.744C19.4907 8.384 19.432 9.168 19.432 10.096C19.432 11.056 19.4907 11.8613 19.608 12.512C19.736 13.1627 19.9867 13.6853 20.36 14.08C20.744 14.4747 21.2987 14.672 22.024 14.672C22.7387 14.672 23.2827 14.4747 23.656 14.08C24.04 13.6853 24.2907 13.1627 24.408 12.512C24.536 11.8613 24.6 11.056 24.6 10.096Z" fill="currentColor"/>
</svg>
